<?xml version="1.0" encoding="UTF-8" standalone="no"?>
<!-- Created with Inkscape (http://www.inkscape.org/) -->

<svg
   version="1.1"
   id="svg2"
   width="2560"
   height="1440"
   viewBox="0 0 2560 1440"
   sodipodi:docname="logo-2.ai"
   xmlns:inkscape="http://www.inkscape.org/namespaces/inkscape"
   xmlns:sodipodi="http://sodipodi.sourceforge.net/DTD/sodipodi-0.dtd"
   xmlns:xlink="http://www.w3.org/1999/xlink"
   xmlns="http://www.w3.org/2000/svg"
   xmlns:svg="http://www.w3.org/2000/svg">
  <defs
     id="defs6">
    <clipPath
       clipPathUnits="userSpaceOnUse"
       id="clipPath32">
      <path
         d="m 178,715 h 1182 v 365 H 178 Z"
         id="path30" />
    </clipPath>
    <clipPath
       clipPathUnits="userSpaceOnUse"
       id="clipPath44">
      <path
         d="M 0,1080 H 1920 V 0 H 0 Z"
         id="path42" />
    </clipPath>
    <clipPath
       clipPathUnits="userSpaceOnUse"
       id="clipPath188">
      <path
         d="M 0,1080 H 1920 V 0 H 0 Z"
         id="path186" />
    </clipPath>
  </defs>
  <sodipodi:namedview
     id="namedview4"
     pagecolor="#ffffff"
     bordercolor="#000000"
     borderopacity="0.25"
     inkscape:showpageshadow="2"
     inkscape:pageopacity="0.0"
     inkscape:pagecheckerboard="0"
     inkscape:deskcolor="#d1d1d1" />
  <g
     id="g8"
     inkscape:groupmode="layer"
     inkscape:label="logo-2"
     transform="matrix(1.3333333,0,0,-1.3333333,0,1440)">
    <path
       d="M 991,447 H 896 V 316 h 95 z"
       style="fill:#cdd5e8;fill-opacity:1;fill-rule:nonzero;stroke:none"
       id="path10" />
    <path
       d="m 1118,467 h -95 V 322 h 95 z"
       style="fill:#cdd5e8;fill-opacity:1;fill-rule:nonzero;stroke:none"
       id="path12" />
    <path
       d="m 1118,479 h -37 V 360 h 37 z"
       style="fill:#cdd5e8;fill-opacity:1;fill-rule:nonzero;stroke:none"
       id="path14" />
    <path
       d="m 900,394 h -57 v -78 h 57 z"
       style="fill:#cdd5e8;fill-opacity:1;fill-rule:nonzero;stroke:none"
       id="path16" />
    <path
       d="m 915,404 h -57 v -78 h 57 z"
       style="fill:#cdd5e8;fill-opacity:1;fill-rule:nonzero;stroke:none"
       id="path18" />
    <path
       d="m 1118,394 h -95 V 292 h 95 z"
       style="fill:#cdd5e8;fill-opacity:1;fill-rule:nonzero;stroke:none"
       id="path20" />
    <g
       id="g22"
       transform="matrix(371,0,0,244,1449,779)">
   </g>
    <g
       id="g38">
      <g
         id="g40"
         clip-path="url(#clipPath44)">
        <g
           id="g46"
           transform="translate(1217,369.5)">
          <path
             d="m 0,0 c 0,-42.802 -34.698,-77.5 -77.5,-77.5 -42.802,0 -77.5,34.698 -77.5,77.5 0,42.802 34.698,77.5 77.5,77.5 C -34.698,77.5 0,42.802 0,0"
             style="fill:#21759b;fill-opacity:1;fill-rule:nonzero;stroke:none"
             id="path48" />
        </g>
        <path
           d="m 1232,322 h -186 v -41 h 186 z"
           style="fill:#21759b;fill-opacity:1;fill-rule:nonzero;stroke:none"
           id="path50" />
        <path
           d="M 1055,507 H 960 V 281 h 95 z"
           style="fill:#21759b;fill-opacity:1;fill-rule:nonzero;stroke:none"
           id="path52" />
        <path
           d="m 1034,518 h -53 v -11 h 53 z"
           style="fill:#21759b;fill-opacity:1;fill-rule:nonzero;stroke:none"
           id="path54" />
        <path
           d="m 1023,564 h -31 v -11 h 31 z"
           style="fill:#21759b;fill-opacity:1;fill-rule:nonzero;stroke:none"
           id="path56" />
        <path
           d="m 1009,597 h -3 v -33 h 3 z"
           style="fill:#21759b;fill-opacity:1;fill-rule:nonzero;stroke:none"
           id="path58" />
        <g
           id="g60"
           transform="translate(1043,530)">
          <path
             d="m 0,0 h -71 l 9.016,-12 h 52.968 z"
             style="fill:#21759b;fill-opacity:1;fill-rule:nonzero;stroke:none"
             id="path62" />
        </g>
        <g
           id="g64"
           transform="translate(972,541)">
          <path
             d="M 0,0 H 71 L 61.984,12 H 9.016 Z"
             style="fill:#21759b;fill-opacity:1;fill-rule:nonzero;stroke:none"
             id="path66" />
        </g>
        <g
           id="g68"
           transform="translate(1052,541)">
          <path
             d="m 0,0 h -89 l 11.302,-11 h 66.396 z"
             style="fill:#21759b;fill-opacity:1;fill-rule:nonzero;stroke:none"
             id="path70" />
        </g>
        <path
           d="M 960,307 H 806 v -26 h 154 z"
           style="fill:#21759b;fill-opacity:1;fill-rule:nonzero;stroke:none"
           id="path72" />
        <path
           d="M 960,307 H 806 v 19 h 154 z"
           style="fill:#21759b;fill-opacity:1;fill-rule:nonzero;stroke:none"
           id="path74" />
        <g
           id="g76"
           transform="translate(806,348.7561)">
          <path
             d="m 0,0 v -36.293 h 137 v 15.805 c 0,0 -88.098,-0.658 -94,-0.268 -5.902,0.39 -21,21 -43,20.756"
             style="fill:#21759b;fill-opacity:1;fill-rule:nonzero;stroke:none"
             id="path78" />
        </g>
        <g
           id="g80"
           transform="translate(826.8293,327)">
          <path
             d="m 0,0 -15.659,33.244 c 0,0 32.025,-15.244 45.513,-16.622 13.487,-1.378 43.317,16.622 43.317,16.622 L 73.171,0 Z"
             style="fill:#21759b;fill-opacity:1;fill-rule:nonzero;stroke:none"
             id="path82" />
        </g>
        <g
           id="g84"
           transform="translate(898.1707,346.6391)">
          <path
             d="m 0,0 c -0.171,-7.639 -0.171,-20.639 -0.171,-20.639 h 17 c 0,0 0.171,38.571 0.171,45 C 7.829,5.075 3.829,3.045 0,0"
             style="fill:#21759b;fill-opacity:1;fill-rule:nonzero;stroke:none"
             id="path86" />
        </g>
        <g
           id="g88"
           transform="translate(912.1707,344.6391)">
          <path
             d="m 0,0 c -0.171,-7.639 -0.171,-20.639 -0.171,-20.639 h 17 c 0,0 0.171,38.571 0.171,45 C 7.829,5.075 3.829,3.045 0,0"
             style="fill:#21759b;fill-opacity:1;fill-rule:nonzero;stroke:none"
             id="path90" />
        </g>
        <g
           id="g92"
           transform="translate(927.1707,344.6391)">
          <path
             d="m 0,0 c -0.171,-7.639 -0.171,-20.639 -0.171,-20.639 h 17 c 0,0 0.171,38.571 0.171,45 C 7.829,5.075 3.829,3.045 0,0"
             style="fill:#21759b;fill-opacity:1;fill-rule:nonzero;stroke:none"
             id="path94" />
        </g>
        <g
           id="g96"
           transform="translate(616.6307,389.5385)">
          <path
             d="m 0,0 c 0,-100.44 -81.423,-181.863 -181.863,-181.863 -100.44,0 -181.863,81.423 -181.863,181.863 0,100.44 81.423,181.863 181.863,181.863 C -81.423,181.863 0,100.44 0,0"
             style="fill:#21759b;fill-opacity:1;fill-rule:nonzero;stroke:none"
             id="path98" />
        </g>
        <path
           d="M 421.914,408.777 H 347.378 V 305.996 h 74.536 z"
           style="fill:#e6e6e6;fill-opacity:1;fill-rule:nonzero;stroke:none"
           id="path100" />
        <path
           d="M 521.557,424.468 H 447.021 V 310.703 h 74.536 z"
           style="fill:#e6e6e6;fill-opacity:1;fill-rule:nonzero;stroke:none"
           id="path102" />
        <path
           d="m 521.557,433.883 h -29.03 v -93.366 h 29.03 z"
           style="fill:#e6e6e6;fill-opacity:1;fill-rule:nonzero;stroke:none"
           id="path104" />
        <path
           d="m 350.517,367.194 h -44.721 v -61.198 h 44.721 z"
           style="fill:#e6e6e6;fill-opacity:1;fill-rule:nonzero;stroke:none"
           id="path106" />
        <path
           d="m 362.286,375.039 h -44.721 v -61.198 h 44.721 z"
           style="fill:#e6e6e6;fill-opacity:1;fill-rule:nonzero;stroke:none"
           id="path108" />
        <path
           d="m 521.557,367.194 h -74.536 v -80.028 h 74.536 z"
           style="fill:#ffffff;fill-opacity:1;fill-rule:nonzero;stroke:none"
           id="path110" />
        <g
           id="g112"
           transform="translate(619.2312,347.9712)">
          <path
             d="m 0,0 c 0,-33.582 -27.224,-60.806 -60.806,-60.806 -33.581,0 -60.805,27.224 -60.805,60.806 0,33.582 27.224,60.806 60.805,60.806 C -27.224,60.806 0,33.582 0,0"
             style="fill:#ffffff;fill-opacity:1;fill-rule:nonzero;stroke:none"
             id="path114" />
        </g>
        <path
           d="M 611,310.703 H 465.067 V 278.535 H 611 Z"
           style="fill:#ffffff;fill-opacity:1;fill-rule:nonzero;stroke:none"
           id="path116" />
        <path
           d="M 472.128,455.852 H 397.592 V 278.535 h 74.536 z"
           style="fill:#ffffff;fill-opacity:1;fill-rule:nonzero;stroke:none"
           id="path118" />
        <path
           d="m 455.652,464.482 h -41.583 v -8.63 h 41.583 z"
           style="fill:#ffffff;fill-opacity:1;fill-rule:nonzero;stroke:none"
           id="path120" />
        <path
           d="m 447.021,500.573 h -24.322 v -8.63 h 24.322 z"
           style="fill:#ffffff;fill-opacity:1;fill-rule:nonzero;stroke:none"
           id="path122" />
        <path
           d="m 436.037,526.465 h -2.354 v -25.891 h 2.354 z"
           style="fill:#ffffff;fill-opacity:1;fill-rule:nonzero;stroke:none"
           id="path124" />
        <g
           id="g126"
           transform="translate(462.713,473.8974)">
          <path
             d="m 0,0 h -55.706 l 7.074,-9.415 h 41.558 z"
             style="fill:#ffffff;fill-opacity:1;fill-rule:nonzero;stroke:none"
             id="path128" />
        </g>
        <g
           id="g130"
           transform="translate(407.0073,482.5279)">
          <path
             d="M 0,0 H 55.706 L 48.632,9.415 H 7.074 Z"
             style="fill:#ffffff;fill-opacity:1;fill-rule:nonzero;stroke:none"
             id="path132" />
        </g>
        <g
           id="g134"
           transform="translate(469.7743,482.5279)">
          <path
             d="m 0,0 h -69.828 l 8.867,-8.63 h 52.094 z"
             style="fill:#ffffff;fill-opacity:1;fill-rule:nonzero;stroke:none"
             id="path136" />
        </g>
        <path
           d="M 397.592,298.934 H 269 v -20.399 h 128.592 z"
           style="fill:#ffffff;fill-opacity:1;fill-rule:nonzero;stroke:none"
           id="path138" />
        <path
           d="M 397.592,298.934 H 269 v 14.907 h 128.592 z"
           style="fill:#ffffff;fill-opacity:1;fill-rule:nonzero;stroke:none"
           id="path140" />
        <g
           id="g142"
           transform="translate(258,337.6756)">
          <path
             d="m 0,0 v -34.455 h 141.061 v 15.005 c 0,0 -90.709,-0.625 -96.786,-0.255 C 38.197,-19.334 22.652,0.232 0,0"
             style="fill:#ffffff;fill-opacity:1;fill-rule:nonzero;stroke:none"
             id="path144" />
        </g>
        <g
           id="g146"
           transform="translate(288.7743,317.0214)">
          <path
             d="m 0,0 -14.865,37.979 c 0,0 30.402,-17.415 43.207,-18.99 12.804,-1.574 41.123,18.99 41.123,18.99 V 0 Z"
             style="fill:#ffffff;fill-opacity:1;fill-rule:nonzero;stroke:none"
             id="path148" />
        </g>
        <g
           id="g150"
           transform="translate(356.5026,339.43)">
          <path
             d="m 0,0 c -0.162,-8.645 -0.162,-23.358 -0.162,-23.358 h 16.139 c 0,0 0.162,43.653 0.162,50.928 C 7.433,5.744 3.635,3.446 0,0"
             style="fill:#ffffff;fill-opacity:1;fill-rule:nonzero;stroke:none"
             id="path152" />
        </g>
        <g
           id="g154"
           transform="translate(369.7935,336.5675)">
          <path
             d="m 0,0 c -0.162,-8.289 -0.162,-22.394 -0.162,-22.394 h 16.139 c 0,0 0.162,41.851 0.162,48.826 C 7.433,5.507 3.635,3.304 0,0"
             style="fill:#ffffff;fill-opacity:1;fill-rule:nonzero;stroke:none"
             id="path156" />
        </g>
        <g
           id="g158"
           transform="translate(384.0338,335.1916)">
          <path
             d="m 0,0 c -0.162,-7.779 -0.162,-21.018 -0.162,-21.018 h 16.139 c 0,0 0.162,39.28 0.162,45.826 C 7.433,5.168 3.635,3.101 0,0"
             style="fill:#ffffff;fill-opacity:1;fill-rule:nonzero;stroke:none"
             id="path160" />
        </g>
        <g
           id="g162"
           transform="translate(434.6785,192.5208)">
          <path
             d="M 0,0 C 108.689,0.264 196.964,88.033 197.086,196.942 197.209,305.94 108.942,394.253 0.027,394.239 -108.878,394.225 -197.071,306.048 -197.075,197.168 -197.078,88.247 -108.849,0.32 0,0 m -3.217,-9.157 c -1.39,0.157 -2.778,0.41 -4.172,0.458 -37.52,1.305 -72.152,12.063 -103.644,32.41 -39.114,25.272 -66.713,59.929 -82.836,103.652 -5.257,14.256 -8.709,28.976 -10.604,44.035 -1.603,12.737 -2.12,25.552 -1.231,38.366 3.297,47.53 20.585,89.305 52.378,124.817 27.142,30.317 60.495,50.838 99.817,61.536 12.633,3.437 25.478,5.55 38.54,6.508 15.048,1.103 30.02,0.622 44.928,-1.648 50.601,-7.704 92.656,-31.071 126.199,-69.577 23.568,-27.055 38.702,-58.429 45.902,-93.576 2.22,-10.836 3.582,-21.806 3.803,-32.893 0.017,-0.85 0.295,-1.695 0.452,-2.541 v -10.477 c -0.293,-3.391 -0.66,-6.778 -0.865,-10.174 -0.63,-10.453 -2.184,-20.784 -4.624,-30.944 -11.425,-47.584 -36.332,-86.651 -75,-116.633 C 90.981,7.143 51.336,-7.121 7.201,-8.706 5.874,-8.754 4.554,-9.002 3.231,-9.157 Z"
             style="fill:#21759b;fill-opacity:1;fill-rule:nonzero;stroke:none"
             id="path164" />
        </g>
        <g
           id="g166"
           transform="translate(1495.835,268.6407)">
          <path
             d="m 0,0 -9.926,25.359 c 0,0 30.402,-17.415 43.207,-18.989 12.805,-1.574 41.123,18.989 41.123,18.989 V 11.402 c 3.208,3.031 7.059,7.546 14.403,25.957 0,-3.609 -0.04,-16.169 -0.08,-27.912 3.02,2.985 6.795,8.107 13.371,23.912 0,-3.411 -0.039,-15.165 -0.079,-26.285 2.791,2.385 6.086,5.857 11.738,17.673 v 101.464 h 16.477 v 8.631 h 0.012 l -7.074,9.415 h 1.806 l -8.867,8.63 h 7.061 l 7.074,9.415 h 8.618 v 8.631 h 10.984 v 25.891 h 2.354 v -25.891 h 10.984 v -8.631 h 8.618 l 7.074,-9.415 h 7.061 l -8.867,-8.63 h 1.806 l -7.074,-9.415 h 0.013 v -8.631 h 16.476 V 37.553 h 28.612 c 8.047,24.158 30.824,41.583 57.686,41.583 26.171,0 48.477,-16.537 57.049,-39.73 0.755,6.728 1.156,13.563 1.156,20.492 0,100.44 -81.423,181.863 -181.863,181.863 -100.44,0 -181.863,-81.423 -181.863,-181.863 0,-18.043 2.64,-35.468 7.534,-51.922 C -14.338,7.503 -6.487,3.957 0,0"
             style="fill:#21759b;fill-opacity:1;fill-rule:nonzero;stroke:none"
             id="path168" />
        </g>
        <g
           id="g170"
           transform="translate(1647.6785,131.5208)">
          <path
             d="M 0,0 C 108.689,0.264 196.964,88.033 197.086,196.942 197.209,305.94 108.942,394.253 0.027,394.239 -108.878,394.225 -197.071,306.048 -197.075,197.168 -197.078,88.247 -108.849,0.32 0,0 m -3.217,-9.157 c -1.39,0.157 -2.778,0.41 -4.172,0.458 -37.52,1.305 -72.152,12.063 -103.644,32.41 -39.114,25.272 -66.713,59.929 -82.836,103.652 -5.257,14.256 -8.709,28.976 -10.604,44.035 -1.603,12.737 -2.12,25.552 -1.231,38.366 3.297,47.53 20.585,89.305 52.378,124.817 27.142,30.317 60.495,50.838 99.817,61.536 12.633,3.437 25.478,5.55 38.54,6.508 15.048,1.103 30.02,0.622 44.928,-1.648 50.601,-7.704 92.656,-31.071 126.198,-69.577 23.569,-27.055 38.703,-58.429 45.903,-93.576 2.22,-10.836 3.581,-21.806 3.803,-32.893 0.017,-0.85 0.295,-1.695 0.452,-2.541 v -10.477 c -0.293,-3.391 -0.66,-6.778 -0.865,-10.174 -0.63,-10.453 -2.184,-20.784 -4.624,-30.944 -11.425,-47.584 -36.332,-86.651 -75,-116.633 C 90.981,7.143 51.336,-7.121 7.201,-8.706 5.874,-8.754 4.554,-9.002 3.231,-9.157 Z"
             style="fill:#21759b;fill-opacity:1;fill-rule:nonzero;stroke:none"
             id="path172" />
        </g>
      </g>
    </g>
    <text
       xml:space="preserve"
       transform="matrix(1,0,0,-1,1509.5864,219.0332)"
       style="font-variant:normal;font-weight:800;font-stretch:normal;font-size:51.3229px;font-family:Merriweather-Black;-inkscape-font-specification:Merriweather-Black;writing-mode:lr-tb;fill:#21759b;fill-opacity:1;fill-rule:nonzero;stroke:none"
       id="text176"><tspan
         x="0 35.515446 65.077438 101.00346 128.10196 159.3576 193.28204 223.97313 252.45735"
         y="0"
         sodipodi:role="line"
         id="tspan174">Vancouver</tspan></text>
    <text
       xml:space="preserve"
       transform="matrix(1,0,0,-1,1525.3662,193.5996)"
       style="font-variant:normal;font-weight:800;font-stretch:normal;font-size:20.4785px;font-family:Merriweather-Black;-inkscape-font-specification:Merriweather-Black;writing-mode:lr-tb;fill:#21759b;fill-opacity:1;fill-rule:nonzero;stroke:none"
       id="text180"><tspan
         x="0 21.010941 33.482349 43.455376 56.643532 70.548431 80.521461 91.887032 102.78159 113.67616 120.00401 133.74509 146.21649 167.51413 188.81177 202.34805 216.68301 224.28053 232.82007"
         y="0"
         sodipodi:role="line"
         id="tspan178">WordPress Community</tspan></text>
    <g
       id="g182">
      <g
         id="g184"
         clip-path="url(#clipPath188)">
        <g
           id="g190"
           transform="translate(1684.1281,306.1936)">
          <path
             d="m 0,0 h 28.612 c 3.892,11.685 11.237,21.786 20.817,29.11 V 57.275 66.69 H 20.399 V 57.275 H 0 Z"
             style="fill:#cdd5e8;fill-opacity:1;fill-rule:nonzero;stroke:none"
             id="path192" />
        </g>
        <g
           id="g194"
           transform="translate(1529.116,275.0107)">
          <path
             d="M 0,0 C 12.805,-1.574 41.123,18.989 41.123,18.989 V 5.032 c 3.208,3.031 7.059,7.546 14.403,25.957 0,-3.609 -0.04,-16.169 -0.08,-27.912 3.02,2.985 6.795,8.107 13.371,23.912 0,-3.411 -0.039,-15.165 -0.079,-26.285 2.791,2.385 6.086,5.857 11.738,17.673 V 72.766 H 30.263 V 39.029 H 0.448 V 31.183 H -11.32 V 3.307 C -6.992,1.62 -3.008,0.37 0,0"
             style="fill:#cdd5e8;fill-opacity:1;fill-rule:nonzero;stroke:none"
             id="path196" />
        </g>
      </g>
    </g>
    <text
       xml:space="preserve"
       transform="matrix(1,0,0,-1,250.4375,114.8047)"
       style="font-variant:normal;font-weight:800;font-stretch:normal;font-size:66.7693px;font-family:Merriweather-Black;-inkscape-font-specification:Merriweather-Black;writing-mode:lr-tb;fill:#21759b;fill-opacity:1;fill-rule:nonzero;stroke:none"
       id="text200"><tspan
         x="0 46.204357 84.663475 131.40198 166.65617 207.31868 251.45319 291.38123 328.4382"
         y="0"
         sodipodi:role="line"
         id="tspan198">Vancouver</tspan></text>
    <text
       xml:space="preserve"
       transform="matrix(1,0,0,-1,255.9219,72.0332)"
       style="font-variant:normal;font-weight:800;font-stretch:normal;font-size:29.1588px;font-family:Merriweather-Black;-inkscape-font-specification:Merriweather-Black;writing-mode:lr-tb;fill:#21759b;fill-opacity:1;fill-rule:nonzero;stroke:none"
       id="text204"><tspan
         x="0 29.916929 47.674637 61.874973 80.653244 100.45206 114.6524 130.83554 146.34802 161.8605 170.87057 190.43613 208.19383 238.51898 268.84415 288.1181 308.52927 319.34717 331.50641"
         y="0"
         sodipodi:role="line"
         id="tspan202">WordPress Community</tspan></text>
    <text
       xml:space="preserve"
       transform="matrix(1,0,0,-1,808.3516,200.6943)"
       style="font-variant:normal;font-weight:800;font-stretch:normal;font-size:78.3697px;font-family:Merriweather-Black;-inkscape-font-specification:Merriweather-Black;writing-mode:lr-tb;fill:#21759b;fill-opacity:1;fill-rule:nonzero;stroke:none"
       id="text208"><tspan
         x="0 54.231831 99.37278 154.23157 195.61078 243.33792 295.14029 342.00537 385.50055"
         y="0"
         sodipodi:role="line"
         id="tspan206">Vancouver</tspan></text>
    <text
       xml:space="preserve"
       transform="matrix(1,0,0,-1,814.7891,160.4912)"
       style="font-variant:normal;font-weight:800;font-stretch:normal;font-size:34.2247px;font-family:Merriweather-Black;-inkscape-font-specification:Merriweather-Black;writing-mode:lr-tb;fill:#21759b;fill-opacity:1;fill-rule:nonzero;stroke:none"
       id="text212"><tspan
         x="0 35.114544 55.957386 72.624817 94.66552 117.90409 134.57152 153.56622 171.77377 189.98131 200.55675 223.52151 244.36436 279.95804 315.55173 338.17426 362.13156 374.82892 389.10062"
         y="0"
         sodipodi:role="line"
         id="tspan210">WordPress Community</tspan></text>
  </g>
</svg>
